<mxfile host="app.diagrams.net" modified="2023-05-18T01:23:43.234Z" agent="Mozilla/5.0 (Windows NT 10.0; Win64; x64) AppleWebKit/537.36 (KHTML, like Gecko) Chrome/113.0.0.0 Safari/537.36" etag="knB6zx37lVelH4n_r91v" version="21.3.2" type="github">
  <diagram name="Page-1" id="2YBvvXClWsGukQMizWep">
    <mxGraphModel dx="2284" dy="796" grid="1" gridSize="10" guides="1" tooltips="1" connect="1" arrows="1" fold="1" page="1" pageScale="1" pageWidth="850" pageHeight="1100" math="0" shadow="0">
      <root>
        <mxCell id="0" />
        <mxCell id="1" parent="0" />
        <mxCell id="SqmqARdED-hJMlYGhAiN-31" value="Empresa" style="shape=umlActor;verticalLabelPosition=bottom;verticalAlign=top;html=1;outlineConnect=0;" vertex="1" parent="1">
          <mxGeometry x="-360" y="200" width="30" height="60" as="geometry" />
        </mxCell>
        <mxCell id="SqmqARdED-hJMlYGhAiN-32" value="van: VantagemController&amp;nbsp;" style="shape=umlLifeline;perimeter=lifelinePerimeter;whiteSpace=wrap;html=1;container=0;dropTarget=0;collapsible=0;recursiveResize=0;outlineConnect=0;portConstraint=eastwest;newEdgeStyle={&quot;edgeStyle&quot;:&quot;elbowEdgeStyle&quot;,&quot;elbow&quot;:&quot;vertical&quot;,&quot;curved&quot;:0,&quot;rounded&quot;:0};" vertex="1" parent="1">
          <mxGeometry x="150" y="100" width="140" height="420" as="geometry" />
        </mxCell>
        <mxCell id="SqmqARdED-hJMlYGhAiN-33" value="" style="html=1;points=[];perimeter=orthogonalPerimeter;outlineConnect=0;targetShapes=umlLifeline;portConstraint=eastwest;newEdgeStyle={&quot;edgeStyle&quot;:&quot;elbowEdgeStyle&quot;,&quot;elbow&quot;:&quot;vertical&quot;,&quot;curved&quot;:0,&quot;rounded&quot;:0};" vertex="1" parent="SqmqARdED-hJMlYGhAiN-32">
          <mxGeometry x="65" y="60" width="10" height="330" as="geometry" />
        </mxCell>
        <mxCell id="SqmqARdED-hJMlYGhAiN-34" value="saveVantagem(@RequestBody @Valid VantagemDto vantagemDto):&amp;nbsp;ResponseEntity&amp;lt;Object&amp;gt;" style="html=1;verticalAlign=bottom;startArrow=oval;endArrow=block;startSize=8;edgeStyle=elbowEdgeStyle;elbow=vertical;curved=0;rounded=0;exitX=1;exitY=0.3333333333333333;exitDx=0;exitDy=0;exitPerimeter=0;" edge="1" parent="1" source="SqmqARdED-hJMlYGhAiN-31" target="SqmqARdED-hJMlYGhAiN-33">
          <mxGeometry x="-0.0175" y="10" relative="1" as="geometry">
            <mxPoint x="10" y="390" as="sourcePoint" />
            <mxPoint x="210" y="220" as="targetPoint" />
            <Array as="points">
              <mxPoint x="50" y="220" />
              <mxPoint y="240" />
            </Array>
            <mxPoint as="offset" />
          </mxGeometry>
        </mxCell>
        <mxCell id="SqmqARdED-hJMlYGhAiN-35" value="vanS: VantagemService&amp;nbsp;" style="shape=umlLifeline;perimeter=lifelinePerimeter;whiteSpace=wrap;html=1;container=0;dropTarget=0;collapsible=0;recursiveResize=0;outlineConnect=0;portConstraint=eastwest;newEdgeStyle={&quot;edgeStyle&quot;:&quot;elbowEdgeStyle&quot;,&quot;elbow&quot;:&quot;vertical&quot;,&quot;curved&quot;:0,&quot;rounded&quot;:0};" vertex="1" parent="1">
          <mxGeometry x="660.5" y="90" width="140" height="420" as="geometry" />
        </mxCell>
        <mxCell id="SqmqARdED-hJMlYGhAiN-36" value="" style="html=1;points=[];perimeter=orthogonalPerimeter;outlineConnect=0;targetShapes=umlLifeline;portConstraint=eastwest;newEdgeStyle={&quot;edgeStyle&quot;:&quot;elbowEdgeStyle&quot;,&quot;elbow&quot;:&quot;vertical&quot;,&quot;curved&quot;:0,&quot;rounded&quot;:0};" vertex="1" parent="SqmqARdED-hJMlYGhAiN-35">
          <mxGeometry x="65" y="60" width="10" height="330" as="geometry" />
        </mxCell>
        <mxCell id="SqmqARdED-hJMlYGhAiN-37" value="return" style="html=1;verticalAlign=bottom;endArrow=open;dashed=1;endSize=8;edgeStyle=elbowEdgeStyle;elbow=vertical;curved=0;rounded=0;entryX=0.45;entryY=0.818;entryDx=0;entryDy=0;entryPerimeter=0;" edge="1" parent="1" source="SqmqARdED-hJMlYGhAiN-41" target="SqmqARdED-hJMlYGhAiN-36">
          <mxGeometry relative="1" as="geometry">
            <mxPoint x="740" y="420" as="targetPoint" />
            <Array as="points">
              <mxPoint x="990" y="420" />
              <mxPoint x="1110.5" y="430" />
              <mxPoint x="915.5" y="550" />
              <mxPoint x="1170.5" y="520" />
              <mxPoint x="1050.5" y="520" />
            </Array>
            <mxPoint x="1180" y="420" as="sourcePoint" />
          </mxGeometry>
        </mxCell>
        <mxCell id="SqmqARdED-hJMlYGhAiN-38" style="edgeStyle=elbowEdgeStyle;rounded=0;orthogonalLoop=1;jettySize=auto;html=1;elbow=vertical;curved=0;" edge="1" parent="1" source="SqmqARdED-hJMlYGhAiN-33" target="SqmqARdED-hJMlYGhAiN-35">
          <mxGeometry relative="1" as="geometry" />
        </mxCell>
        <mxCell id="SqmqARdED-hJMlYGhAiN-39" value="save(VantagemModel vantagemModel):&amp;nbsp;VantagemModel&amp;nbsp;" style="text;html=1;align=center;verticalAlign=middle;resizable=0;points=[];autosize=1;strokeColor=none;fillColor=none;" vertex="1" parent="1">
          <mxGeometry x="280" y="295" width="330" height="30" as="geometry" />
        </mxCell>
        <mxCell id="SqmqARdED-hJMlYGhAiN-40" value="vanR: VantagemRepository&amp;nbsp;" style="shape=umlLifeline;perimeter=lifelinePerimeter;whiteSpace=wrap;html=1;container=0;dropTarget=0;collapsible=0;recursiveResize=0;outlineConnect=0;portConstraint=eastwest;newEdgeStyle={&quot;edgeStyle&quot;:&quot;elbowEdgeStyle&quot;,&quot;elbow&quot;:&quot;vertical&quot;,&quot;curved&quot;:0,&quot;rounded&quot;:0};" vertex="1" parent="1">
          <mxGeometry x="1040" y="90" width="140" height="420" as="geometry" />
        </mxCell>
        <mxCell id="SqmqARdED-hJMlYGhAiN-41" value="" style="html=1;points=[];perimeter=orthogonalPerimeter;outlineConnect=0;targetShapes=umlLifeline;portConstraint=eastwest;newEdgeStyle={&quot;edgeStyle&quot;:&quot;elbowEdgeStyle&quot;,&quot;elbow&quot;:&quot;vertical&quot;,&quot;curved&quot;:0,&quot;rounded&quot;:0};" vertex="1" parent="SqmqARdED-hJMlYGhAiN-40">
          <mxGeometry x="65" y="60" width="10" height="330" as="geometry" />
        </mxCell>
        <mxCell id="SqmqARdED-hJMlYGhAiN-42" style="edgeStyle=elbowEdgeStyle;rounded=0;orthogonalLoop=1;jettySize=auto;html=1;elbow=vertical;curved=0;" edge="1" parent="1" source="SqmqARdED-hJMlYGhAiN-36" target="SqmqARdED-hJMlYGhAiN-40">
          <mxGeometry relative="1" as="geometry">
            <Array as="points">
              <mxPoint x="870" y="370" />
            </Array>
          </mxGeometry>
        </mxCell>
        <mxCell id="SqmqARdED-hJMlYGhAiN-43" value="save(VantagemModel vantagemModel):&amp;nbsp;VantagemModel&amp;nbsp;" style="text;html=1;align=center;verticalAlign=middle;resizable=0;points=[];autosize=1;strokeColor=none;fillColor=none;" vertex="1" parent="1">
          <mxGeometry x="750" y="340" width="330" height="30" as="geometry" />
        </mxCell>
        <mxCell id="SqmqARdED-hJMlYGhAiN-44" value="return" style="html=1;verticalAlign=bottom;endArrow=open;dashed=1;endSize=8;edgeStyle=elbowEdgeStyle;elbow=vertical;curved=0;rounded=0;" edge="1" parent="1" target="SqmqARdED-hJMlYGhAiN-32">
          <mxGeometry relative="1" as="geometry">
            <mxPoint x="460" y="354.5" as="targetPoint" />
            <Array as="points">
              <mxPoint x="720" y="354.5" />
              <mxPoint x="840.5" y="364.5" />
              <mxPoint x="645.5" y="484.5" />
              <mxPoint x="900.5" y="454.5" />
              <mxPoint x="780.5" y="454.5" />
            </Array>
            <mxPoint x="725" y="354.5" as="sourcePoint" />
          </mxGeometry>
        </mxCell>
      </root>
    </mxGraphModel>
  </diagram>
</mxfile>
